<svg width="807" height="772" viewBox="0 0 807 772" fill="none" xmlns="http://www.w3.org/2000/svg">
<path d="M5.86945 156.48C7.31685 151.173 11.4344 149.742 15.78 149.119C21.703 148.271 27.6951 147.913 33.6525 147.295C50.9684 145.501 64.8456 137.396 75.937 124.196C86.2189 111.96 95.4341 98.8592 106.717 87.4252C127.788 66.0731 153.232 51.9937 181.123 41.9193C216.504 29.139 252.99 22.4471 290.657 21.6928C331.341 20.878 371.012 26.2545 409.51 39.5666C412.678 40.6618 414.911 39.5246 417.501 38.3483C462.951 17.7002 510.417 4.67832 560.301 1.10272C570.26 0.388895 580.292 0.540888 590.094 3.14533C602.998 6.57423 607.797 14.6248 604.463 27.605C601.396 39.5458 594.894 49.9008 588.948 60.4963C582.593 71.8219 575.683 82.8932 572.143 95.5439C569.124 106.333 571.553 114.867 580.778 122.448C631.322 163.985 675.295 211.513 709.83 267.336C730.218 300.292 745.894 335.277 753.472 373.504C757.717 394.921 759.785 416.619 761.138 438.404C762.42 459.049 762.472 479.675 761.058 500.298C758.517 537.356 752.426 573.675 738.039 608.592C734.135 610.162 734.921 606.776 734.514 605.145C731.172 591.734 728.179 578.238 724.44 564.921C713.349 525.425 699.981 486.76 683.308 449.235C670.635 420.71 656.131 393.213 638.922 367.171C622.203 341.871 601.894 319.748 579.409 299.454C553.816 276.354 525.94 256.54 495.995 239.56C488.171 235.124 479.839 231.653 471.694 226.997C456.988 220.113 435.797 226.827 429.088 248.825C425.782 259.665 423.9 270.751 423.181 282.162C421.999 300.905 423.974 319.33 426.795 337.756C427.095 339.714 427.702 341.994 425.563 343.181C423.735 344.194 422.033 342.858 420.555 341.786C390.238 319.798 363.088 294.666 343.897 262.076C327.784 234.711 318.929 205.175 319.659 173.122C319.722 170.346 319.832 167.585 320.323 165.32C319.481 171.397 317.861 177.792 317.149 184.382C316.793 187.684 317.17 191.614 312.745 193.502C309.052 193.441 306.384 191.524 303.412 190.498C278.272 181.813 252.405 176.376 225.998 173.638C204.737 171.433 183.509 173.291 162.294 175.053C148.048 176.237 133.834 177.777 119.548 178.576C111.572 179.022 103.617 179.434 95.628 179.479C67.0093 179.641 39.8781 173.117 13.8531 161.522C12.3327 160.845 10.8018 160.192 8.87003 159.368C7.32703 158.774 6.43779 158.065 5.86945 156.48Z" fill="#39B6FF"/>
<path d="M471.63 226.281C492.585 235.279 511.856 246.789 530.474 259.404C558.271 278.239 583.816 299.753 606.773 324.295C630.267 349.411 648.812 377.957 664.785 408.257C697.905 471.083 720.669 537.641 736.089 606.829C736.271 607.643 736.302 608.488 737.599 608.904C738.222 614.43 743.111 617.577 744.858 622.694C745.15 626.101 746.649 628.752 747.848 631.473C758.336 655.289 767.84 679.463 774.514 704.665C776.614 712.596 777.706 720.645 777.426 728.89C777.015 741.021 770.706 745.988 759.049 742.516C750.756 740.046 742.649 736.927 734.275 734.69C707.662 727.58 680.676 722.588 653.196 720.291C640.917 719.264 628.654 718.407 616.314 718.333C599.518 718.232 583.16 720.841 566.901 724.743C550.535 728.671 534.188 732.676 517.854 736.734C516.06 737.179 514.349 737.793 512.367 738.895C507.042 734.547 508.706 728.896 509.771 723.714C511.256 716.494 516.129 710.969 520.907 705.697C534.956 690.195 551.923 678.246 569.315 666.883C591.289 652.525 614.225 639.805 637.234 627.213C642.171 624.511 647.125 621.836 651.987 619.005C670.032 608.497 675.4 595.404 670.547 574.967C668.311 565.554 664.065 557.249 658.138 549.313C658.217 546.832 656.95 545.199 655.923 543.511C636.199 511.083 609.123 486.999 574.251 471.865C544.468 458.94 516.725 442.518 490.371 423.632C471.38 410.022 453.898 394.649 436.552 379.038C409.415 354.615 380.734 332.077 350.858 311.074C316.609 286.996 281.053 265.107 243.912 245.719C211.198 228.641 177.546 213.841 142.59 202.094C123.156 195.563 103.395 189.922 82.9343 187.699C72.6838 186.585 62.3653 186.075 52.2117 184.15C38.801 181.606 26.0804 177.208 15.1704 168.778C11.7047 166.1 6.93285 163.874 7.7121 157.787C21.9871 163.586 36.2068 169.198 51.1581 172.877C76.763 179.176 102.635 178.692 128.63 176.608C149.367 174.946 170.051 172.764 190.85 171.691C229.906 169.675 267.376 177.146 304.198 189.161C306.987 190.071 309.619 191.468 312.644 192.804C317.058 193.314 316.26 196.594 316.236 198.976C316.139 208.49 316.614 217.933 318.225 227.331C323.215 256.436 336.34 281.35 356.274 302.991C378.689 327.326 405.867 344.621 435.82 357.968C440.089 359.87 440.29 359.79 439.722 355.074C437.649 337.87 436.184 320.638 436.686 303.287C437.081 289.595 438.444 276.051 442.654 262.918C445.033 255.496 448.687 248.863 454.275 243.361C459.971 237.752 465.502 231.977 471.63 226.281Z" fill="#E7F2F1"/>
<path d="M7.73597 157.302C7.66572 159.887 8.94439 161.502 10.5589 163.096C22.4052 174.795 37.2345 180.212 53.1697 182.948C75.2991 186.746 97.8769 187.348 119.676 193.788C142.8 200.62 165.454 208.564 187.687 217.832C204.113 224.679 220.337 231.992 236.122 240.168C256.767 250.86 277.098 262.129 296.984 274.236C325.22 291.426 352.423 310.079 378.799 329.954C394.277 341.618 409.495 353.631 424.009 366.502C451.545 390.923 478.748 415.737 509.955 435.622C531.435 449.31 553.673 461.432 577.031 471.687C603.965 483.512 626.362 501.439 644.513 524.705C649.539 531.147 653.911 537.965 658.21 544.859C658.904 545.971 661.072 547.312 658.317 548.96C643.224 532.903 625.062 521.377 606.305 510.648C581.476 496.445 555.869 483.703 530.62 470.286C502.839 455.524 476.646 438.366 452.642 418.001C434.939 402.983 417.581 387.557 399.91 372.5C383.889 358.849 367.606 345.507 351.521 331.931C326.523 310.834 300.561 291.042 272.998 273.387C261.942 266.306 250.666 259.401 238.73 254.138C213.597 243.056 187.475 234.559 161.109 226.775C132.983 218.47 104.514 211.557 76.0653 204.527C55.4972 199.444 34.5626 195.81 14.3832 189.199C1.24106 184.894 -3.70115 166.918 5.47455 156.211C6.36135 156.412 6.9554 156.768 7.73597 157.302Z" fill="#D7EBE9"/>
<path d="M512.127 739.341C511.983 737.426 512.302 736.418 514.313 735.948C537.841 730.45 561.193 724.084 584.885 719.445C602.287 716.037 620.098 716.383 637.905 717.756C651.766 718.825 665.579 720.006 679.335 721.968C700.488 724.984 721.375 729.224 741.828 735.454C747.851 737.289 753.748 739.542 759.777 741.356C770.154 744.48 775.63 740.143 776.074 729.359C776.591 716.843 773.52 705.001 769.88 693.299C763.218 671.887 755.203 650.968 745.861 630.564C744.866 628.39 743.349 626.159 744.715 623.255C753.573 635.048 760.884 647.891 768.182 660.695C776.94 676.06 785.675 691.492 792.407 707.907C798.176 721.975 804.056 736.028 805.889 751.336C806.559 756.929 804.966 762.012 802.636 766.945C801.182 770.024 798.566 770.84 795.296 771.06C783.246 771.87 771.983 768.226 760.71 764.992C733.425 757.165 706.381 748.394 678.381 743.377C668.483 741.604 658.481 740.365 648.365 739.811C640.574 739.384 632.779 738.643 625.008 739.076C608.832 739.978 592.661 740.885 576.531 742.713C566.529 743.847 556.418 744.528 546.368 745.366C537.318 746.122 528.584 745.824 519.744 744.168C516.565 743.573 514.215 742.071 512.127 739.341Z" fill="#D7EBE9"/>
<path d="M471.745 225.842C471.902 228.434 469.961 229.464 468.615 230.855C462.832 236.834 456.489 242.349 451.277 248.784C444.088 257.66 441.925 268.729 440.016 279.708C437.44 294.515 437.475 309.5 438.182 324.393C438.721 335.739 439.552 347.151 441.672 358.38C441.857 359.361 442.317 360.462 441.514 361.22C440.383 362.287 439.356 361.091 438.376 360.672C416.896 351.495 396.704 339.981 378.401 325.517C358.32 309.648 341.379 290.847 329.935 267.687C322.4 252.439 317.574 236.365 315.796 219.301C315.067 212.308 315.331 205.382 314.999 198.432C314.914 196.652 315.454 194.701 313.311 193.17C314.716 192.23 315.083 190.859 315.306 189.038C316.413 180.001 317.445 170.933 320.937 160.823C320.937 166.069 320.95 169.885 320.935 173.701C320.76 218.381 337.165 256.7 365.706 290.354C382.059 309.636 400.945 326.134 421.404 340.895C422.212 341.479 423.048 342.03 423.911 342.529C424.315 342.762 424.812 342.835 426.254 343.296C425.337 336.886 424.381 330.991 423.666 325.066C420.601 299.668 420.044 274.382 427.501 249.516C432.604 232.5 445.046 222.869 461.356 223.243C464.9 223.324 468.244 224.248 471.745 225.842Z" fill="#D4E9E8"/>
<path d="M208.057 121.929C203.491 129.255 197.439 131.893 190.69 129.775C184.475 127.824 180.101 121.675 180.444 115.374C180.805 108.757 185.79 103 192.396 101.772C203.443 99.7169 212.799 111.059 208.057 121.929Z" fill="#553C2C"/>
</svg>
