<svg xmlns="http://www.w3.org/2000/svg" xmlns:xlink="http://www.w3.org/1999/xlink" width="614" zoomAndPan="magnify" viewBox="0 0 460.5 133.500001" height="178" preserveAspectRatio="xMidYMid meet" version="1.0"><defs><g/></defs><g fill="#00494f" fill-opacity="1"><g transform="translate(17.226338, 94.236307)"><g><path d="M 1.828125 0 L 1.828125 -0.828125 L 3.484375 -1.5 C 4.597656 -1.882812 5.332031 -2.410156 5.6875 -3.078125 C 6.050781 -3.742188 6.234375 -4.601562 6.234375 -5.65625 L 6.234375 -49.09375 C 6.234375 -50.207031 6.050781 -51.09375 5.6875 -51.75 C 5.332031 -52.414062 4.597656 -52.945312 3.484375 -53.34375 L 1.828125 -54 L 1.828125 -54.828125 L 22.921875 -54.828125 L 22.921875 -54 L 21.515625 -53.421875 C 20.460938 -53.035156 19.742188 -52.519531 19.359375 -51.875 C 18.972656 -51.238281 18.78125 -50.367188 18.78125 -49.265625 L 18.78125 -29.078125 L 38.625 -29.078125 L 38.625 -49.265625 C 38.625 -50.367188 38.441406 -51.238281 38.078125 -51.875 C 37.722656 -52.519531 36.992188 -53.035156 35.890625 -53.421875 L 34.390625 -54 L 34.390625 -54.828125 L 55.578125 -54.828125 L 55.578125 -54 L 53.921875 -53.34375 C 52.867188 -52.945312 52.144531 -52.414062 51.75 -51.75 C 51.363281 -51.09375 51.171875 -50.207031 51.171875 -49.09375 L 51.171875 -5.65625 C 51.171875 -4.601562 51.363281 -3.742188 51.75 -3.078125 C 52.144531 -2.410156 52.867188 -1.882812 53.921875 -1.5 L 55.578125 -0.828125 L 55.578125 0 L 34.390625 0 L 34.390625 -0.828125 L 35.890625 -1.328125 C 36.992188 -1.773438 37.722656 -2.316406 38.078125 -2.953125 C 38.441406 -3.585938 38.625 -4.457031 38.625 -5.5625 L 38.625 -27.421875 L 18.78125 -27.421875 L 18.78125 -5.5625 C 18.78125 -3.519531 19.691406 -2.109375 21.515625 -1.328125 L 22.921875 -0.828125 L 22.921875 0 Z M 1.828125 0 "/></g></g></g><g fill="#00494f" fill-opacity="1"><g transform="translate(74.634227, 94.236307)"><g><path d="M 22.6875 1.25 C 18.46875 1.25 14.804688 0.378906 11.703125 -1.359375 C 8.609375 -3.109375 6.21875 -5.585938 4.53125 -8.796875 C 2.84375 -12.015625 2 -15.785156 2 -20.109375 C 2 -24.421875 2.894531 -28.15625 4.6875 -31.3125 C 6.488281 -34.476562 8.953125 -36.914062 12.078125 -38.625 C 15.210938 -40.34375 18.75 -41.203125 22.6875 -41.203125 C 26.613281 -41.203125 30.128906 -40.359375 33.234375 -38.671875 C 36.335938 -36.984375 38.785156 -34.5625 40.578125 -31.40625 C 42.378906 -28.25 43.28125 -24.484375 43.28125 -20.109375 C 43.28125 -15.734375 42.4375 -11.953125 40.75 -8.765625 C 39.0625 -5.578125 36.679688 -3.109375 33.609375 -1.359375 C 30.535156 0.378906 26.894531 1.25 22.6875 1.25 Z M 22.6875 -0.421875 C 24.625 -0.421875 26.171875 -0.972656 27.328125 -2.078125 C 28.492188 -3.179688 29.335938 -5.144531 29.859375 -7.96875 C 30.390625 -10.800781 30.65625 -14.789062 30.65625 -19.9375 C 30.65625 -25.144531 30.390625 -29.160156 29.859375 -31.984375 C 29.335938 -34.804688 28.492188 -36.769531 27.328125 -37.875 C 26.171875 -38.988281 24.625 -39.546875 22.6875 -39.546875 C 20.738281 -39.546875 19.171875 -38.988281 17.984375 -37.875 C 16.796875 -36.769531 15.9375 -34.804688 15.40625 -31.984375 C 14.882812 -29.160156 14.625 -25.144531 14.625 -19.9375 C 14.625 -14.789062 14.882812 -10.800781 15.40625 -7.96875 C 15.9375 -5.144531 16.796875 -3.179688 17.984375 -2.078125 C 19.171875 -0.972656 20.738281 -0.421875 22.6875 -0.421875 Z M 22.6875 -0.421875 "/></g></g></g><g fill="#00494f" fill-opacity="1"><g transform="translate(119.91252, 94.236307)"><g><path d="M 1.65625 0 L 1.65625 -0.828125 L 2.828125 -1.15625 C 3.878906 -1.4375 4.613281 -1.910156 5.03125 -2.578125 C 5.445312 -3.242188 5.679688 -4.128906 5.734375 -5.234375 L 5.734375 -31.234375 C 5.734375 -32.453125 5.535156 -33.351562 5.140625 -33.9375 C 4.753906 -34.519531 4.007812 -34.921875 2.90625 -35.140625 L 1.65625 -35.46875 L 1.65625 -36.3125 L 15.875 -41.125 L 16.703125 -40.296875 L 17.359375 -34.640625 C 19.191406 -36.472656 21.285156 -38.023438 23.640625 -39.296875 C 25.992188 -40.566406 28.441406 -41.203125 30.984375 -41.203125 C 33.640625 -41.203125 35.769531 -40.660156 37.375 -39.578125 C 38.988281 -38.503906 40.210938 -36.832031 41.046875 -34.5625 C 43.203125 -36.613281 45.539062 -38.234375 48.0625 -39.421875 C 50.582031 -40.609375 53.03125 -41.203125 55.40625 -41.203125 C 59.34375 -41.203125 62.238281 -40.257812 64.09375 -38.375 C 65.945312 -36.5 66.875 -33.539062 66.875 -29.5 L 66.875 -5.15625 C 66.875 -2.988281 67.875 -1.628906 69.875 -1.078125 L 70.78125 -0.828125 L 70.78125 0 L 51.59375 0 L 51.59375 -0.828125 L 52.421875 -1.078125 C 53.472656 -1.410156 54.207031 -1.910156 54.625 -2.578125 C 55.039062 -3.242188 55.25 -4.128906 55.25 -5.234375 L 55.25 -30.65625 C 55.25 -32.976562 54.832031 -34.566406 54 -35.421875 C 53.164062 -36.285156 51.835938 -36.71875 50.015625 -36.71875 C 48.578125 -36.71875 47.175781 -36.398438 45.8125 -35.765625 C 44.457031 -35.128906 43.035156 -34.175781 41.546875 -32.90625 C 41.816406 -32.007812 41.992188 -31.035156 42.078125 -29.984375 C 42.160156 -28.929688 42.203125 -27.828125 42.203125 -26.671875 L 42.203125 -5.15625 C 42.253906 -2.988281 43.25 -1.628906 45.1875 -1.078125 L 45.9375 -0.828125 L 45.9375 0 L 26.671875 0 L 26.671875 -0.828125 L 27.828125 -1.15625 C 28.878906 -1.488281 29.613281 -1.972656 30.03125 -2.609375 C 30.445312 -3.253906 30.65625 -4.128906 30.65625 -5.234375 L 30.65625 -30.578125 C 30.65625 -32.785156 30.253906 -34.359375 29.453125 -35.296875 C 28.648438 -36.242188 27.28125 -36.71875 25.34375 -36.71875 C 24.0625 -36.71875 22.785156 -36.398438 21.515625 -35.765625 C 20.242188 -35.128906 18.914062 -34.203125 17.53125 -32.984375 L 17.53125 -5.15625 C 17.53125 -2.988281 18.5 -1.628906 20.4375 -1.078125 L 21.1875 -0.828125 L 21.1875 0 Z M 1.65625 0 "/></g></g></g><g fill="#00494f" fill-opacity="1"><g transform="translate(192.2747, 94.236307)"><g><path d="M 22.515625 -41.203125 C 26.117188 -41.203125 29.191406 -40.46875 31.734375 -39 C 34.285156 -37.53125 36.238281 -35.535156 37.59375 -33.015625 C 38.945312 -30.503906 39.625 -27.640625 39.625 -24.421875 C 39.625 -23.816406 39.597656 -23.191406 39.546875 -22.546875 C 39.492188 -21.910156 39.382812 -21.347656 39.21875 -20.859375 L 14.453125 -20.859375 C 14.503906 -14.867188 15.566406 -10.554688 17.640625 -7.921875 C 19.722656 -5.296875 22.816406 -3.984375 26.921875 -3.984375 C 29.691406 -3.984375 31.929688 -4.425781 33.640625 -5.3125 C 35.359375 -6.195312 36.96875 -7.5 38.46875 -9.21875 L 39.296875 -8.46875 C 37.578125 -5.425781 35.289062 -3.046875 32.4375 -1.328125 C 29.582031 0.390625 26.164062 1.25 22.1875 1.25 C 18.25 1.25 14.753906 0.40625 11.703125 -1.28125 C 8.660156 -2.976562 6.28125 -5.40625 4.5625 -8.5625 C 2.851562 -11.71875 2 -15.484375 2 -19.859375 C 2 -24.398438 2.992188 -28.257812 4.984375 -31.4375 C 6.972656 -34.625 9.53125 -37.046875 12.65625 -38.703125 C 15.789062 -40.367188 19.078125 -41.203125 22.515625 -41.203125 Z M 22.265625 -39.546875 C 20.660156 -39.546875 19.289062 -39.0625 18.15625 -38.09375 C 17.019531 -37.125 16.128906 -35.40625 15.484375 -32.9375 C 14.847656 -30.476562 14.503906 -27.003906 14.453125 -22.515625 L 28.65625 -22.515625 C 29.21875 -28.546875 29 -32.890625 28 -35.546875 C 27 -38.210938 25.085938 -39.546875 22.265625 -39.546875 Z M 22.265625 -39.546875 "/></g></g></g><g fill="#00494f" fill-opacity="1"><g transform="translate(234.395971, 94.236307)"><g><path d="M 1.65625 19.109375 L 1.65625 18.28125 L 2.65625 17.9375 C 4.707031 17.382812 5.734375 16.054688 5.734375 13.953125 L 5.734375 -31.234375 C 5.734375 -32.453125 5.523438 -33.363281 5.109375 -33.96875 C 4.691406 -34.582031 3.929688 -35 2.828125 -35.21875 L 1.65625 -35.46875 L 1.65625 -36.3125 L 15.78125 -41.125 L 16.609375 -40.296875 L 17.359375 -37.71875 C 19.191406 -38.820312 21.226562 -39.675781 23.46875 -40.28125 C 25.707031 -40.894531 28.019531 -41.203125 30.40625 -41.203125 C 35.164062 -41.203125 38.941406 -39.390625 41.734375 -35.765625 C 44.535156 -32.140625 45.9375 -26.945312 45.9375 -20.1875 C 45.9375 -13.539062 44.398438 -8.304688 41.328125 -4.484375 C 38.253906 -0.660156 33.921875 1.25 28.328125 1.25 C 23.953125 1.25 20.269531 0.609375 17.28125 -0.671875 L 17.28125 13.703125 C 17.28125 15.921875 18.273438 17.304688 20.265625 17.859375 L 21.84375 18.28125 L 21.84375 19.109375 Z M 24.34375 -1.15625 C 27.113281 -1.15625 29.3125 -2.59375 30.9375 -5.46875 C 32.570312 -8.351562 33.390625 -13.148438 33.390625 -19.859375 C 33.390625 -26.554688 32.613281 -31.25 31.0625 -33.9375 C 29.519531 -36.625 27.28125 -37.96875 24.34375 -37.96875 C 22.289062 -37.96875 20.019531 -37.300781 17.53125 -35.96875 L 17.53125 -2.5 C 19.632812 -1.601562 21.90625 -1.15625 24.34375 -1.15625 Z M 24.34375 -1.15625 "/></g></g></g><g fill="#00494f" fill-opacity="1"><g transform="translate(282.415887, 94.236307)"><g><path d="M 13.796875 1.25 C 10.578125 1.25 7.875 0.335938 5.6875 -1.484375 C 3.5 -3.316406 2.40625 -5.953125 2.40625 -9.390625 C 2.40625 -11.992188 3.734375 -14.390625 6.390625 -16.578125 C 9.054688 -18.765625 13.238281 -20.410156 18.9375 -21.515625 C 19.820312 -21.679688 20.816406 -21.859375 21.921875 -22.046875 C 23.035156 -22.242188 24.203125 -22.457031 25.421875 -22.6875 L 25.421875 -29.25 C 25.421875 -33.007812 24.960938 -35.648438 24.046875 -37.171875 C 23.140625 -38.703125 21.710938 -39.46875 19.765625 -39.46875 C 18.441406 -39.46875 17.390625 -39.035156 16.609375 -38.171875 C 15.835938 -37.316406 15.34375 -35.835938 15.125 -33.734375 L 14.953125 -32.8125 C 14.835938 -30.4375 14.253906 -28.691406 13.203125 -27.578125 C 12.148438 -26.472656 10.851562 -25.921875 9.3125 -25.921875 C 7.863281 -25.921875 6.664062 -26.363281 5.71875 -27.25 C 4.78125 -28.132812 4.3125 -29.328125 4.3125 -30.828125 C 4.3125 -33.097656 5.101562 -35.003906 6.6875 -36.546875 C 8.269531 -38.097656 10.359375 -39.257812 12.953125 -40.03125 C 15.554688 -40.8125 18.382812 -41.203125 21.4375 -41.203125 C 26.363281 -41.203125 30.171875 -40 32.859375 -37.59375 C 35.546875 -35.1875 36.890625 -31.269531 36.890625 -25.84375 L 36.890625 -7.484375 C 36.890625 -4.984375 38.050781 -3.734375 40.375 -3.734375 L 42.203125 -3.734375 L 42.953125 -3.078125 C 41.898438 -1.742188 40.75 -0.71875 39.5 0 C 38.257812 0.71875 36.503906 1.078125 34.234375 1.078125 C 31.796875 1.078125 29.867188 0.507812 28.453125 -0.625 C 27.035156 -1.757812 26.109375 -3.269531 25.671875 -5.15625 C 24.003906 -3.382812 22.296875 -1.875 20.546875 -0.625 C 18.804688 0.625 16.554688 1.25 13.796875 1.25 Z M 18.859375 -3.828125 C 19.960938 -3.828125 21 -4.085938 21.96875 -4.609375 C 22.9375 -5.140625 24.085938 -5.957031 25.421875 -7.0625 L 25.421875 -21.015625 C 24.867188 -20.910156 24.3125 -20.800781 23.75 -20.6875 C 23.195312 -20.570312 22.5625 -20.460938 21.84375 -20.359375 C 19.300781 -19.691406 17.265625 -18.566406 15.734375 -16.984375 C 14.210938 -15.410156 13.453125 -13.296875 13.453125 -10.640625 C 13.453125 -8.367188 13.976562 -6.664062 15.03125 -5.53125 C 16.082031 -4.394531 17.359375 -3.828125 18.859375 -3.828125 Z M 18.859375 -3.828125 "/></g></g></g><g fill="#00494f" fill-opacity="1"><g transform="translate(325.451047, 94.236307)"><g><path d="M 1.65625 19.109375 L 1.65625 18.28125 L 2.65625 17.9375 C 4.707031 17.382812 5.734375 16.054688 5.734375 13.953125 L 5.734375 -31.234375 C 5.734375 -32.453125 5.523438 -33.363281 5.109375 -33.96875 C 4.691406 -34.582031 3.929688 -35 2.828125 -35.21875 L 1.65625 -35.46875 L 1.65625 -36.3125 L 15.78125 -41.125 L 16.609375 -40.296875 L 17.359375 -37.71875 C 19.191406 -38.820312 21.226562 -39.675781 23.46875 -40.28125 C 25.707031 -40.894531 28.019531 -41.203125 30.40625 -41.203125 C 35.164062 -41.203125 38.941406 -39.390625 41.734375 -35.765625 C 44.535156 -32.140625 45.9375 -26.945312 45.9375 -20.1875 C 45.9375 -13.539062 44.398438 -8.304688 41.328125 -4.484375 C 38.253906 -0.660156 33.921875 1.25 28.328125 1.25 C 23.953125 1.25 20.269531 0.609375 17.28125 -0.671875 L 17.28125 13.703125 C 17.28125 15.921875 18.273438 17.304688 20.265625 17.859375 L 21.84375 18.28125 L 21.84375 19.109375 Z M 24.34375 -1.15625 C 27.113281 -1.15625 29.3125 -2.59375 30.9375 -5.46875 C 32.570312 -8.351562 33.390625 -13.148438 33.390625 -19.859375 C 33.390625 -26.554688 32.613281 -31.25 31.0625 -33.9375 C 29.519531 -36.625 27.28125 -37.96875 24.34375 -37.96875 C 22.289062 -37.96875 20.019531 -37.300781 17.53125 -35.96875 L 17.53125 -2.5 C 19.632812 -1.601562 21.90625 -1.15625 24.34375 -1.15625 Z M 24.34375 -1.15625 "/></g></g></g><g fill="#00494f" fill-opacity="1"><g transform="translate(373.470963, 94.236307)"><g><path d="M 13.796875 1.25 C 10.578125 1.25 7.875 0.335938 5.6875 -1.484375 C 3.5 -3.316406 2.40625 -5.953125 2.40625 -9.390625 C 2.40625 -11.992188 3.734375 -14.390625 6.390625 -16.578125 C 9.054688 -18.765625 13.238281 -20.410156 18.9375 -21.515625 C 19.820312 -21.679688 20.816406 -21.859375 21.921875 -22.046875 C 23.035156 -22.242188 24.203125 -22.457031 25.421875 -22.6875 L 25.421875 -29.25 C 25.421875 -33.007812 24.960938 -35.648438 24.046875 -37.171875 C 23.140625 -38.703125 21.710938 -39.46875 19.765625 -39.46875 C 18.441406 -39.46875 17.390625 -39.035156 16.609375 -38.171875 C 15.835938 -37.316406 15.34375 -35.835938 15.125 -33.734375 L 14.953125 -32.8125 C 14.835938 -30.4375 14.253906 -28.691406 13.203125 -27.578125 C 12.148438 -26.472656 10.851562 -25.921875 9.3125 -25.921875 C 7.863281 -25.921875 6.664062 -26.363281 5.71875 -27.25 C 4.78125 -28.132812 4.3125 -29.328125 4.3125 -30.828125 C 4.3125 -33.097656 5.101562 -35.003906 6.6875 -36.546875 C 8.269531 -38.097656 10.359375 -39.257812 12.953125 -40.03125 C 15.554688 -40.8125 18.382812 -41.203125 21.4375 -41.203125 C 26.363281 -41.203125 30.171875 -40 32.859375 -37.59375 C 35.546875 -35.1875 36.890625 -31.269531 36.890625 -25.84375 L 36.890625 -7.484375 C 36.890625 -4.984375 38.050781 -3.734375 40.375 -3.734375 L 42.203125 -3.734375 L 42.953125 -3.078125 C 41.898438 -1.742188 40.75 -0.71875 39.5 0 C 38.257812 0.71875 36.503906 1.078125 34.234375 1.078125 C 31.796875 1.078125 29.867188 0.507812 28.453125 -0.625 C 27.035156 -1.757812 26.109375 -3.269531 25.671875 -5.15625 C 24.003906 -3.382812 22.296875 -1.875 20.546875 -0.625 C 18.804688 0.625 16.554688 1.25 13.796875 1.25 Z M 18.859375 -3.828125 C 19.960938 -3.828125 21 -4.085938 21.96875 -4.609375 C 22.9375 -5.140625 24.085938 -5.957031 25.421875 -7.0625 L 25.421875 -21.015625 C 24.867188 -20.910156 24.3125 -20.800781 23.75 -20.6875 C 23.195312 -20.570312 22.5625 -20.460938 21.84375 -20.359375 C 19.300781 -19.691406 17.265625 -18.566406 15.734375 -16.984375 C 14.210938 -15.410156 13.453125 -13.296875 13.453125 -10.640625 C 13.453125 -8.367188 13.976562 -6.664062 15.03125 -5.53125 C 16.082031 -4.394531 17.359375 -3.828125 18.859375 -3.828125 Z M 18.859375 -3.828125 "/></g></g></g><g fill="#ff2768" fill-opacity="1"><g transform="translate(417.265129, 94.236307)"><g><path d="M 12.46875 1.25 C 10.46875 1.25 8.773438 0.554688 7.390625 -0.828125 C 6.003906 -2.210938 5.3125 -3.875 5.3125 -5.8125 C 5.3125 -7.75 6.003906 -9.4375 7.390625 -10.875 C 8.773438 -12.320312 10.46875 -13.046875 12.46875 -13.046875 C 14.457031 -13.046875 16.144531 -12.320312 17.53125 -10.875 C 18.914062 -9.4375 19.609375 -7.75 19.609375 -5.8125 C 19.609375 -3.875 18.914062 -2.210938 17.53125 -0.828125 C 16.144531 0.554688 14.457031 1.25 12.46875 1.25 Z M 12.46875 1.25 "/></g></g></g></svg>