<svg width="991" height="323" viewBox="0 0 991 323" fill="none" xmlns="http://www.w3.org/2000/svg">
<path d="M500.174 309.96C500.174 313.267 500.174 316.081 500.174 319.664C498.038 319.664 496.277 319.664 494.517 319.664C482.518 319.664 470.512 319.433 458.523 319.776C453.601 319.916 452.039 318.767 452.066 313.504C452.297 267.009 452.2 220.513 452.2 174.017C452.2 141.186 452.2 108.356 452.2 75.5252C452.2 73.7007 452.2 71.8761 452.2 69.592C467.131 69.592 481.813 69.592 496.902 69.592C496.902 78.0855 496.902 86.5137 496.902 93.2885C501.455 89.4087 506.646 84.9073 511.92 80.5053C543.932 53.7833 586.765 64.4464 607.942 91.3512C621.891 109.072 627.877 129.433 628.991 151.556C629.815 167.927 628.689 184.043 624.201 199.97C613.721 237.16 578.782 259.996 540.774 253.638C526.756 251.293 514.847 244.372 504.88 234.24C503.629 232.968 502.826 231.254 501.815 229.745C501.268 230.094 500.721 230.443 500.174 230.791C500.174 257.017 500.174 283.242 500.174 309.96ZM539.633 217.986C555.639 218.155 567 211.281 573.07 196.157C581.967 173.986 582.466 151.437 575.594 128.786C572.703 119.255 566.482 111.763 557.432 107.18C538.203 97.4413 514.348 106.752 506.017 127.821C497.718 148.806 497.32 170.518 504.462 191.803C509.792 207.689 521.622 216.68 539.633 217.986Z" fill="#00A1FF"/>
<path d="M177.966 68C177.966 128.958 177.966 189.417 177.966 250.268C162.967 250.268 148.262 250.268 133.171 250.268C133.171 241.692 133.171 233.264 133.171 223.524C129.706 227.689 127.19 231.052 124.333 234.094C102.691 257.145 65.3119 261.745 37.2279 242.189C21.6677 231.354 11.8635 216.245 6.5284 198.494C-1.25495 172.597 -1.74964 146.249 6.01483 120.262C13.2985 95.8843 27.5989 77.0533 52.832 69.0519C80.1358 60.394 104.755 65.0705 125.479 85.7771C126.65 86.948 127.622 88.3198 129.651 90.7572C129.651 59.6877 129.651 30.2086 129.651 0.295959C145.87 0.295959 161.572 0.295959 177.966 0.295959C177.966 22.6528 177.966 45.0764 177.966 68ZM54.757 129.328C53.6266 134.005 52.1291 138.629 51.4315 143.369C48.8789 160.719 48.8693 178.018 55.9736 194.408C61.2761 206.641 70.7585 214.527 84.316 216.04C106.938 218.566 121.183 204.228 126.658 185.774C131.648 168.954 131.754 151.526 127.774 134.393C122.179 110.312 102.335 97.5524 79.7832 102.98C66.1164 106.269 59.1341 116.06 54.757 129.328Z" fill="#00A1FF"/>
<path d="M690.947 129.07C689.818 139.027 687.993 148.572 687.861 158.141C687.46 187.13 687.625 216.129 687.812 245.123C687.841 249.475 686.755 250.862 682.264 250.769C668.292 250.479 654.31 250.663 639.891 250.663C639.891 167.066 639.891 83.8564 639.891 0.252686C655.572 0.252686 671.29 0.252686 687.589 0.252686C687.589 30.2952 687.589 60.3447 687.589 91.634C691.44 87.967 694.361 85.1404 697.331 82.366C720.944 60.3036 757.108 60.7555 780.492 75.0067C795.456 84.1266 800.647 98.807 802.833 114.925C804.015 123.642 804.525 132.508 804.573 141.311C804.765 175.804 804.581 210.298 804.74 244.792C804.761 249.177 803.89 250.923 799.036 250.783C786.548 250.423 774.04 250.49 761.548 250.758C757.284 250.85 756.287 249.414 756.29 245.355C756.322 208.697 756.27 172.037 755.913 135.381C755.857 129.645 754.607 123.801 753.096 118.227C750.762 109.614 744.825 104.341 735.976 102.719C726.803 101.038 717.739 101.514 708.986 104.961C698.213 109.203 693.985 118.473 690.947 129.07Z" fill="#00A1FF"/>
<path d="M817.667 307.427C816.743 299.565 815.905 292.147 814.999 284.124C819.54 284.554 823.767 284.794 827.946 285.376C847.318 288.073 859.172 281.355 867.592 263.53C871.247 255.791 872.024 248.955 868.713 240.442C847.315 185.431 826.579 130.162 805.634 74.9745C805.002 73.3104 804.457 71.6136 803.593 69.1323C809.347 69.1323 814.43 69.1323 819.514 69.1323C829.509 69.1323 839.509 69.3101 849.497 69.0411C853.262 68.9396 854.934 70.0199 856.158 73.738C868.998 112.747 882.058 151.684 895.068 190.637C895.791 192.8 896.615 194.929 897.914 198.515C898.951 195.611 899.565 194.013 900.095 192.387C912.995 152.875 925.952 113.381 938.673 73.8117C939.877 70.0682 941.518 68.9936 945.282 69.0473C959.928 69.2561 974.579 69.1323 990.03 69.1323C986.925 77.6496 983.999 85.6873 981.066 93.7228C959.976 151.513 938.972 209.336 917.723 267.068C913.08 279.684 908.384 292.395 899.695 303.036C889.902 315.028 877.051 321.888 861.843 322.741C848.812 323.471 835.666 322.342 822.585 321.732C821.309 321.673 819.408 319.667 819.055 318.251C818.219 314.891 818.138 311.343 817.667 307.427Z" fill="#00A1FF"/>
<path d="M366.913 122.123C378.774 155.346 376.106 186.898 356.458 215.868C341.121 238.483 319.314 251.528 291.662 254.141C271.637 256.034 252.367 253.05 234.36 244.356C206.738 231.019 192.566 207.677 188.14 178.074C185.014 157.171 186.233 136.58 195.415 117.042C207.728 90.8405 227.723 73.954 256.104 67.5892C275.836 63.1641 295.534 63.7455 314.624 70.6599C339.65 79.7245 356.872 97.0932 366.913 122.123ZM322.015 138.667C321.351 136.612 320.78 134.521 320.007 132.508C313.214 114.818 298.185 104.23 279.844 104.165C262.677 104.105 246.781 115.041 240.561 132.278C233.9 150.738 233.932 169.585 240.739 188.005C247.13 205.3 263 215.65 280.973 215.284C299.186 214.914 314.108 204.164 320.266 186.662C325.718 171.167 325.657 155.374 322.015 138.667Z" fill="#00A1FF"/>
<path d="M432.001 51C432.001 117.594 432.001 183.689 432.001 250.064C415.875 250.064 400.291 250.064 384.364 250.064C384.364 166.765 384.364 83.5772 384.364 0.125366C400.151 0.125366 415.735 0.125366 432.001 0.125366C432.001 16.9777 432.001 33.7389 432.001 51Z" fill="#00A1FF"/>
</svg>
