<svg width="1137" height="385" viewBox="0 0 1137 385" fill="none" xmlns="http://www.w3.org/2000/svg">
<g clip-path="url(#clip0_12_23)">
<path d="M500.174 309.96C500.174 313.267 500.174 316.081 500.174 319.664C498.038 319.664 496.277 319.664 494.517 319.664C482.518 319.664 470.512 319.433 458.523 319.776C453.601 319.916 452.039 318.767 452.066 313.504C452.297 267.009 452.2 220.513 452.2 174.017C452.2 141.186 452.2 108.356 452.2 75.5252C452.2 73.7007 452.2 71.8761 452.2 69.592C467.131 69.592 481.813 69.592 496.902 69.592C496.902 78.0855 496.902 86.5137 496.902 93.2885C501.455 89.4087 506.646 84.9073 511.92 80.5053C543.932 53.7833 586.765 64.4464 607.942 91.3512C621.891 109.072 627.877 129.433 628.991 151.556C629.815 167.927 628.689 184.043 624.201 199.97C613.721 237.16 578.782 259.996 540.774 253.638C526.756 251.293 514.847 244.372 504.88 234.24C503.629 232.968 502.826 231.254 501.815 229.745C501.268 230.094 500.721 230.443 500.174 230.791C500.174 257.017 500.174 283.242 500.174 309.96ZM539.633 217.986C555.639 218.155 567 211.281 573.07 196.157C581.967 173.986 582.466 151.437 575.594 128.786C572.703 119.255 566.482 111.763 557.432 107.18C538.203 97.4413 514.348 106.752 506.017 127.821C497.718 148.806 497.32 170.518 504.462 191.803C509.792 207.689 521.622 216.68 539.633 217.986Z" fill="black"/>
<path d="M177.966 67.9999C177.966 128.958 177.966 189.417 177.966 250.268C162.967 250.268 148.262 250.268 133.171 250.268C133.171 241.692 133.171 233.264 133.171 223.524C129.706 227.689 127.19 231.052 124.333 234.094C102.691 257.145 65.3119 261.745 37.2279 242.189C21.6677 231.354 11.8635 216.245 6.5284 198.494C-1.25495 172.597 -1.74964 146.249 6.01483 120.262C13.2985 95.8842 27.5989 77.0532 52.832 69.0518C80.1358 60.3939 104.755 65.0704 125.479 85.777C126.65 86.9479 127.622 88.3197 129.651 90.7571C129.651 59.6876 129.651 30.2085 129.651 0.295898C145.87 0.295898 161.572 0.295898 177.966 0.295898C177.966 22.6527 177.966 45.0763 177.966 67.9999ZM54.757 129.328C53.6266 134.005 52.1291 138.629 51.4315 143.369C48.8789 160.719 48.8693 178.018 55.9736 194.408C61.2761 206.641 70.7585 214.527 84.316 216.04C106.938 218.566 121.183 204.228 126.658 185.774C131.648 168.954 131.754 151.526 127.774 134.393C122.179 110.312 102.335 97.5523 79.7832 102.98C66.1164 106.269 59.1341 116.06 54.757 129.328Z" fill="black"/>
<path d="M690.947 129.07C689.818 139.027 687.993 148.572 687.861 158.141C687.46 187.13 687.625 216.129 687.812 245.123C687.841 249.475 686.755 250.862 682.264 250.769C668.292 250.479 654.31 250.663 639.891 250.663C639.891 167.066 639.891 83.8564 639.891 0.252686C655.572 0.252686 671.29 0.252686 687.589 0.252686C687.589 30.2952 687.589 60.3447 687.589 91.634C691.44 87.967 694.361 85.1404 697.331 82.366C720.944 60.3036 757.108 60.7555 780.492 75.0067C795.456 84.1266 800.647 98.807 802.833 114.925C804.015 123.642 804.525 132.508 804.573 141.311C804.765 175.804 804.581 210.298 804.74 244.792C804.761 249.177 803.89 250.923 799.036 250.783C786.548 250.423 774.04 250.49 761.548 250.758C757.284 250.85 756.287 249.414 756.29 245.355C756.322 208.697 756.27 172.037 755.913 135.381C755.857 129.645 754.607 123.801 753.096 118.227C750.762 109.614 744.825 104.341 735.976 102.719C726.803 101.038 717.739 101.514 708.986 104.961C698.213 109.203 693.985 118.473 690.947 129.07Z" fill="black"/>
<path d="M817.667 307.427C816.743 299.565 815.905 292.147 814.999 284.124C819.54 284.554 823.767 284.794 827.946 285.376C847.318 288.073 859.172 281.355 867.592 263.53C871.247 255.791 872.024 248.955 868.713 240.442C847.315 185.431 826.579 130.162 805.634 74.9745C805.002 73.3104 804.457 71.6136 803.593 69.1323C809.347 69.1323 814.43 69.1323 819.514 69.1323C829.509 69.1323 839.509 69.3101 849.497 69.0411C853.262 68.9396 854.934 70.0199 856.158 73.738C868.998 112.747 882.058 151.684 895.068 190.637C895.791 192.8 896.615 194.929 897.914 198.515C898.951 195.611 899.565 194.013 900.095 192.387C912.995 152.875 925.952 113.381 938.673 73.8117C939.877 70.0682 941.518 68.9936 945.282 69.0473C959.928 69.2561 974.579 69.1323 990.03 69.1323C986.925 77.6496 983.999 85.6873 981.066 93.7228C959.976 151.513 938.972 209.336 917.723 267.068C913.08 279.684 908.384 292.395 899.695 303.036C889.902 315.028 877.051 321.888 861.843 322.741C848.812 323.471 835.666 322.342 822.585 321.732C821.309 321.673 819.408 319.667 819.055 318.251C818.219 314.891 818.138 311.343 817.667 307.427Z" fill="#39B6FF"/>
<path d="M366.913 122.123C378.774 155.346 376.106 186.898 356.458 215.868C341.121 238.483 319.314 251.528 291.662 254.141C271.637 256.034 252.367 253.05 234.36 244.356C206.738 231.019 192.566 207.677 188.14 178.074C185.014 157.171 186.233 136.58 195.415 117.042C207.728 90.8405 227.723 73.954 256.104 67.5892C275.836 63.1641 295.534 63.7455 314.624 70.6599C339.65 79.7245 356.872 97.0932 366.913 122.123ZM322.015 138.667C321.351 136.612 320.78 134.521 320.007 132.508C313.214 114.818 298.185 104.23 279.844 104.165C262.677 104.105 246.781 115.041 240.561 132.278C233.9 150.738 233.932 169.585 240.739 188.005C247.13 205.3 263 215.65 280.973 215.284C299.186 214.914 314.108 204.164 320.266 186.662C325.718 171.167 325.657 155.374 322.015 138.667Z" fill="black"/>
<path d="M432.001 50.9999C432.001 117.594 432.001 183.689 432.001 250.064C415.875 250.064 400.291 250.064 384.364 250.064C384.364 166.765 384.364 83.5771 384.364 0.125244C400.151 0.125244 415.735 0.125244 432.001 0.125244C432.001 16.9776 432.001 33.7388 432.001 50.9999Z" fill="black"/>
</g>
<path d="M1117.83 75.076C1116.81 73.1364 1115.19 72.9391 1113.56 73.0763C1111.34 73.2633 1109.14 73.6474 1106.93 73.9274C1100.51 74.7414 1094.74 72.7982 1089.49 68.6285C1084.63 64.7631 1080.07 60.4681 1074.92 57.0025C1065.3 50.5308 1054.79 47.2723 1043.77 45.7867C1029.79 43.902 1015.99 44.484 1002.32 47.4806C987.555 50.7172 973.739 56.2756 961.095 64.8208C960.054 65.5239 959.141 65.2763 958.095 65.0445C939.742 60.9764 921.379 60.0534 903.033 63.0188C899.37 63.6109 895.763 64.5463 892.469 66.4164C888.133 68.8785 887.159 72.4318 889.585 77.1937C891.817 81.5743 895.14 85.0375 898.285 88.6429C901.646 92.4967 905.183 96.2032 907.653 100.819C909.759 104.755 909.686 108.29 907.07 112.047C892.735 132.632 881.336 154.976 874.127 179.724C869.871 194.334 867.506 209.323 868.371 224.867C868.856 233.575 870.153 242.203 871.717 250.802C873.198 258.951 875.122 266.985 877.576 274.89C881.984 289.094 887.604 302.701 896.086 315.038C897.644 315.308 897.041 314.058 897.034 313.388C896.978 307.875 896.787 302.36 896.883 296.849C897.166 280.504 898.351 264.284 900.835 248.22C902.724 236.008 905.37 224.037 909.13 212.395C912.783 201.086 918.031 190.7 924.237 180.835C931.3 169.607 939.498 159.458 948.71 150.232C951.116 147.821 953.797 145.743 956.3 143.219C960.96 139.254 969.243 140.017 973.737 147.994C975.952 151.926 977.675 156.077 979.01 160.456C981.202 167.65 982.225 174.995 982.942 182.414C983.018 183.203 983.014 184.144 983.897 184.419C984.653 184.654 985.142 183.985 985.574 183.438C994.448 172.23 1001.88 160.075 1005.74 145.711C1008.98 133.651 1009.4 121.379 1006.11 108.965C1005.83 107.89 1005.53 106.824 1005.14 105.985C1006.01 108.278 1007.2 110.625 1008.08 113.129C1008.52 114.383 1008.75 115.946 1010.53 116.295C1011.86 115.948 1012.64 114.969 1013.61 114.31C1021.87 108.733 1030.7 104.357 1039.98 100.984C1047.44 98.2686 1055.28 97.1374 1063.11 95.9704C1068.36 95.1867 1073.64 94.5448 1078.87 93.608C1081.79 93.085 1084.7 92.5505 1087.59 91.8702C1097.94 89.4331 1107.12 84.5233 1115.42 77.7363C1115.91 77.3398 1116.4 76.9518 1117.02 76.4623C1117.52 76.0963 1117.77 75.7427 1117.83 75.076Z" fill="#39B6FF"/>
<path d="M956.256 142.933C949.538 148.267 943.665 154.431 938.131 160.968C929.87 170.729 922.674 181.336 916.698 192.895C910.582 204.725 906.575 217.458 903.663 230.648C897.624 257.999 895.675 285.899 896.625 314.18C896.636 314.513 896.704 314.845 896.275 315.12C896.571 317.326 895.102 318.978 894.953 321.122C895.169 322.474 894.877 323.637 894.701 324.801C893.158 334.989 892.003 345.23 891.968 355.624C891.957 358.895 892.321 362.123 893.198 365.309C894.489 369.996 897.235 371.378 901.116 369.008C903.878 367.322 906.511 365.4 909.323 363.798C918.262 358.705 927.534 354.404 937.238 351.11C941.575 349.637 945.921 348.233 950.369 347.126C956.423 345.619 962.575 345.206 968.812 345.305C975.091 345.404 981.369 345.536 987.648 345.688C988.338 345.705 989.014 345.795 989.833 346.051C991.346 343.893 990.213 341.838 989.34 339.914C988.124 337.233 985.845 335.508 983.623 333.873C977.091 329.065 969.84 325.895 962.491 322.991C953.205 319.321 943.726 316.373 934.233 313.48C932.197 312.86 930.156 312.251 928.134 311.574C920.63 309.06 917.459 304.431 917.286 296.051C917.206 292.192 917.957 288.588 919.349 284.98C919.087 284.021 919.391 283.275 919.602 282.528C923.669 268.181 931.175 256.44 942.339 247.502C951.874 239.869 960.343 231.053 968.079 221.399C973.653 214.441 978.516 206.93 983.308 199.337C990.804 187.459 999.036 176.18 1007.84 165.393C1017.94 153.028 1028.72 141.401 1040.3 130.609C1050.5 121.103 1061.25 112.402 1072.77 104.776C1079.17 100.536 1085.77 96.6131 1092.95 93.9604C1096.54 92.6314 1100.22 91.5318 1103.71 89.8952C1108.31 87.7336 1112.49 84.9101 1115.63 80.6754C1116.63 79.3302 1118.14 78.0468 1117.29 75.7452C1112.68 79.2495 1108.08 82.6766 1103.02 85.4146C1094.37 90.1036 1084.99 92.1749 1075.41 93.6344C1067.76 94.7987 1060.09 95.7563 1052.48 97.1552C1038.19 99.7821 1025.37 105.964 1013.21 113.857C1012.28 114.456 1011.47 115.229 1010.5 116.013C1008.95 116.598 1009.55 117.805 1009.78 118.73C1010.72 122.425 1011.43 126.143 1011.74 129.942C1012.68 141.708 1010.29 152.554 1005.13 162.72C999.327 174.151 991.144 183.258 981.588 191.071C980.226 192.184 980.145 192.171 979.906 190.285C979.034 183.407 977.94 176.57 976.125 169.859C974.692 164.564 972.924 159.41 970.167 154.665C968.609 151.984 966.665 149.721 964.13 148.067C961.545 146.381 959.004 144.616 956.256 142.933Z" fill="#E7F2F1"/>
<path d="M1117.23 75.5584C1117.5 76.5587 1117.19 77.2989 1116.76 78.0606C1113.59 83.6497 1108.74 87.054 1103.25 89.5108C1095.62 92.9226 1087.52 95.1292 1080.26 99.5405C1072.55 104.22 1065.12 109.291 1057.97 114.841C1052.68 118.942 1047.52 123.206 1042.59 127.768C1036.14 133.733 1029.86 139.896 1023.82 146.347C1015.25 155.505 1007.18 165.143 999.535 175.184C995.045 181.077 990.683 187.083 986.656 193.361C979.015 205.274 971.531 217.31 962.138 227.777C955.672 234.982 948.786 241.643 941.319 247.676C932.709 254.632 926.312 263.567 921.95 274.21C920.743 277.157 919.806 280.193 918.904 283.253C918.758 283.746 918.102 284.458 919.251 284.858C923.188 277.289 928.659 271.216 934.42 265.401C942.046 257.703 950.091 250.505 957.942 243.077C966.581 234.903 974.421 225.935 981.169 215.911C986.146 208.518 990.959 200.996 995.921 193.591C1000.42 186.877 1005.04 180.261 1009.57 173.571C1016.61 163.174 1024.12 153.202 1032.4 143.921C1035.73 140.198 1039.15 136.525 1042.96 133.434C1050.99 126.924 1059.62 121.335 1068.41 116.001C1077.78 110.311 1087.41 105.133 1097.01 99.9116C1103.96 96.1362 1111.18 92.8929 1117.84 88.5566C1122.18 85.7325 1122.27 78.3029 1117.95 74.9362C1117.65 75.092 1117.47 75.2824 1117.23 75.5584Z" fill="#D7EBE9"/>
<path d="M989.962 346.203C989.833 345.445 989.623 345.08 988.853 345.073C979.841 344.988 970.81 344.55 961.82 344.813C955.217 345.007 948.819 346.697 942.52 348.787C937.616 350.414 932.741 352.08 927.959 354.046C920.607 357.068 913.465 360.543 906.668 364.755C904.667 365.995 902.75 367.387 900.744 368.62C897.292 370.743 894.907 369.533 893.731 365.374C892.365 360.546 892.358 355.668 892.57 350.795C892.959 341.877 893.882 333.033 895.332 324.274C895.487 323.341 895.825 322.34 895.058 321.329C892.971 326.693 891.541 332.331 890.112 337.954C888.398 344.7 886.698 351.471 885.814 358.449C885.056 364.43 884.257 370.414 885.037 376.533C885.322 378.769 886.376 380.609 887.682 382.326C888.497 383.398 889.518 383.487 890.719 383.286C895.146 382.549 898.869 380.147 902.634 377.903C911.747 372.473 920.684 366.696 930.32 362.297C933.727 360.742 937.221 359.386 940.821 358.287C943.593 357.44 946.338 356.471 949.184 355.96C955.109 354.899 961.033 353.839 967.028 353.142C970.746 352.709 974.46 352.091 978.167 351.54C981.506 351.043 984.631 350.165 987.666 348.748C988.758 348.238 989.465 347.449 989.962 346.203Z" fill="#D7EBE9"/>
<path d="M956.172 142.773C956.36 143.795 957.157 144.026 957.774 144.451C960.425 146.273 963.235 147.866 965.723 149.916C969.154 152.743 970.977 156.863 972.701 160.97C975.025 166.51 976.424 172.347 977.572 178.206C978.446 182.67 979.221 187.185 979.513 191.742C979.539 192.14 979.477 192.609 979.838 192.834C980.347 193.15 980.605 192.595 980.919 192.346C987.809 186.897 994.015 180.651 999.26 173.422C1005.01 165.49 1009.36 156.691 1011.31 146.675C1012.59 140.081 1012.82 133.402 1011.86 126.604C1011.46 123.818 1010.71 121.144 1010.18 118.41C1010.04 117.709 1009.66 116.997 1010.29 116.214C1009.7 115.971 1009.44 115.469 1009.18 114.78C1007.93 111.358 1006.71 107.918 1004.49 104.287C1004.99 106.33 1005.34 107.816 1005.71 109.301C1009.98 126.679 1007.66 143.03 1000.53 158.624C996.444 167.559 991.179 175.631 985.184 183.165C984.947 183.462 984.697 183.75 984.432 184.02C984.309 184.146 984.136 184.218 983.659 184.523C983.386 181.948 983.176 179.569 982.876 177.2C981.59 167.045 979.41 157.153 974.375 148.124C970.93 141.945 965.531 139.283 959.678 140.853C958.406 141.194 957.286 141.846 956.172 142.773Z" fill="#D4E9E8"/>
<path d="M1041.58 79.2868C1043.92 81.7398 1046.35 82.2383 1048.59 80.824C1050.65 79.5218 1051.65 76.7461 1050.93 74.3229C1050.18 71.7786 1047.84 69.9729 1045.34 70.0716C1041.16 70.2367 1038.85 75.4696 1041.58 79.2868Z" fill="#553C2C"/>
<defs>
<clipPath id="clip0_12_23">
<rect width="991" height="323" fill="white"/>
</clipPath>
</defs>
</svg>
